<?xml version="1.0" encoding="utf-8"?>
<svg width="533.5px" height="544.3px" viewBox="0 0 533.5 544.3" version="1.1" xmlns:xlink="http://www.w3.org/1999/xlink" xmlns="http://www.w3.org/2000/svg">
  <defs>
    <path d="M533.5 0L533.5 0L533.5 544.3L0 544.3L0 0L533.5 0Z" id="path_1" />
    <clipPath id="clip_1">
      <use xlink:href="#path_1" clip-rule="evenodd" fill-rule="evenodd" />
    </clipPath>
  </defs>
  <g id="google-logo">
    <path d="M533.5 0L533.5 0L533.5 544.3L0 544.3L0 0L533.5 0Z" id="google-logo" fill="none" stroke="none" />
    <path d="M533.5 278.4C533.5 260.5 531.9 243.4 528.9 226.7L272 226.7L272 324.6L418.9 324.6C412.6 358.6 393.4 387.4 364.4 406.7L364.4 473.7L452.3 473.7C503.7 426.4 532.5 356.7 532.5 278.4L533.5 278.4Z" id="Shape" fill="#4285F4" stroke="none" clip-path="url(#clip_1)" />
    <path d="M271.979 544.15C345.649 544.15 407.607 518.612 452.75 474.682L364.767 404.268C340.344 421.398 308.914 431.593 271.979 431.593C200.912 431.593 140.856 381.147 119.436 313.15L28.75 313.15L28.75 387.453C73.7925 492.023 165.479 544.15 271.979 544.15L271.979 544.15Z" id="Shape" fill="#34A853" stroke="none" clip-path="url(#clip_1)" />
    <path d="M119.75 309.926C111.389 276.952 111.389 241.386 119.75 208.411L119.75 125.15L39.1665 125.15C3.94451 215.831 3.94451 323.469 39.1665 414.15L119.75 330.889L119.75 309.926Z" id="Shape" fill="#FBBC05" stroke="none" clip-path="url(#clip_1)" />
    <path d="M271.719 117.016C310.793 116.415 348.105 131.038 376.406 157.278L454.75 77.1546C402.553 32.1854 342.229 9.14999 271.719 9.14999C167.522 9.14999 77.8184 58.8264 33.75 133.341L122.474 204.15C143.431 165.39 202.189 117.016 271.719 117.016L271.719 117.016Z" id="Shape" fill="#EA4335" stroke="none" clip-path="url(#clip_1)" />
  </g>
</svg>